Simulation
nRows=19
nColumns=15
endheader
time  TH_x TH_y TH_z SC_y  SC_z  SC_x  AC_y  AC_z  AC_x  GH_y  GH_z  GH_yy  EL_x  PS_y
0.0  0.000000  0.000000  0.000000  -23.169259137588984  -1.779952481694211  -5.0234547215177585  54.47296973894239  10.826571589587235  -0.298471537187768  -20.53757000274425  6.465551774234363  77.09423843866851  14.828683565588738  120.000000
0.04078947368421054  0.000000  0.000000  0.000000  -22.004926356695076  -1.1592757141809769  -4.981519123254307  54.03508447006949  10.80735712591174  0.03935705531432599  -22.145241801347264  7.168640434423906  77.2562544247978  14.723310966882654  120.000000
0.08157894736842108  0.000000  0.000000  0.000000  -21.087812971212546  -0.8227836462482918  -5.110344873089351  53.701576904771905  10.8694727447962  0.28927394101951426  -22.53329086526703  8.017417402174907  76.39156001666039  14.534477291125418  120.000000
0.12236842105263163  0.000000  0.000000  0.000000  -20.384802883044138  -0.6634198657742646  -5.413298502131677  53.418261366940165  11.066891867317098  0.5231798046596137  -22.389126645563326  9.019186241574129  75.27580891838436  14.538208111812024  120.000000
0.16315789473684217  0.000000  0.000000  0.000000  -19.85643116550185  -0.6006041200741612  -5.905519020033454  53.120913953251375  11.42244603323387  0.7907187847230518  -22.044978532411786  10.130361771452742  74.16659689555192  14.868900751095996  120.000000
0.2039473684210527  0.000000  0.000000  0.000000  -19.443786198520034  -0.5686265714959239  -6.5776158729943885  52.77628882936384  11.945224236880643  1.1253759186941825  -21.82721644993  11.322159922589424  73.3287421432555  15.64177839634311  120.000000
0.24473684210526325  0.000000  0.000000  0.000000  -19.119253579730437  -0.5108761555470785  -7.416959675966562  52.34568059292029  12.62791658467902  1.557583860305477  -21.87544170535721  12.564687982739189  72.79899207026084  16.94330936449172  120.000000
0.2855263157894738  0.000000  0.000000  0.000000  -18.877239771270347  -0.3895300562878215  -8.407681970090112  51.81498809691601  13.458425352323381  2.109494094639174  -22.267071623265373  13.840361294420902  72.57642314481882  18.82132378775109  120.000000
0.32631578947368434  0.000000  0.000000  0.000000  -18.715629510052207  -0.18569526257939667  -9.52429130096284  51.17427056930168  14.411895766389803  2.788960243590232  -23.05792748317348  15.146853882631781  72.65921989366377  21.295243161441512  120.000000
0.3671052631578949  0.000000  0.000000  0.000000  -18.632284502101683  0.10541531087464838  -10.736593640774505  50.431020551728054  15.449429453802216  3.591732213136369  -24.25715524649234  16.489863514994003  73.02855712324615  24.325766849828113  120.000000
0.4078947368421054  0.000000  0.000000  0.000000  -18.62354203437052  0.46965152444931124  -12.002773560130118  49.61179518084168  16.522319764369094  4.499306000229815  -25.835128973597904  17.88194243276074  73.66741777930513  27.810228486216403  120.000000
0.44868421052631596  0.000000  0.000000  0.000000  -18.67693283881453  0.8863108493989931  -13.271987019525431  48.7632825132062  17.57275067307906  5.479106298334356  -27.69480452826339  19.338392652805453  74.52776230681027  31.59340802668307  120.000000
0.4894736842105265  0.000000  0.000000  0.000000  -18.776927239021305  1.341077369199913  -14.491265786141048  47.9319245046303  18.54538473141804  6.495813452634649  -29.69258366860427  20.871490106984396  75.53593916488266  35.51723858219357  120.000000
0.530263157894737  0.000000  0.000000  0.000000  -18.917384068022205  1.826910427682777  -15.611257238599993  47.15423069267389  19.3949529844457  7.507337142838547  -31.665862673145515  22.489539492072687  76.58158978898197  39.47357023103213  120.000000
0.5710526315789476  0.000000  0.000000  0.000000  -19.117950007749023  2.343888967666684  -16.58568086160496  46.4595410558614  20.085488043229198  8.475672299644659  -33.47379924865677  24.198028998190008  77.55604292451665  43.41005685376842  120.000000
0.6118421052631582  0.000000  0.000000  0.000000  -19.41380732841935  2.896079238138851  -17.378475056076972  45.87579133106314  20.592121977955095  9.364228241007496  -35.01521189261342  25.997561014877505  78.36105781349252  47.31729217423207  120.000000
0.6526315789473687  0.000000  0.000000  0.000000  -19.838727136410455  3.4836950519130223  -17.96472545740288  45.42347323528979  20.899655851522546  10.142180533161257  -36.24239182705734  27.889317673900393  78.93211307409096  51.2105068960693  120.000000
0.6934210526315792  0.000000  0.000000  0.000000  -20.417666327959296  4.098970761360555  -18.334180477134655  45.12123391503706  21.004506412546046  10.783915288481083  -37.15174144200158  29.87318260183002  79.23527361884015  55.10561580865382  120.000000
0.7342105263157898  0.000000  0.000000  0.000000  -21.15904988705765  4.7238973276835425  -18.49294259578632  44.980178501718484  20.918277507331478  11.276877794639246  -37.77842968690616  31.947454810030695  79.27436679570276  59.00561132360838  120.000000
